<?xml version="1.0" encoding="iso-8859-1"?>
<!-- Generator: Adobe Illustrator 16.0.0, SVG Export Plug-In . SVG Version: 6.00 Build 0)  -->
<!DOCTYPE svg PUBLIC "-//W3C//DTD SVG 1.1//EN" "http://www.w3.org/Graphics/SVG/1.1/DTD/svg11.dtd">
<svg version="1.1" id="Capa_1" xmlns="http://www.w3.org/2000/svg" xmlns:xlink="http://www.w3.org/1999/xlink" x="0px" y="0px"
	 width="612px" height="612px" viewBox="0 0 612 612" style="enable-background:new 0 0 612 612;" xml:space="preserve">
<g>
	<path d="M597.748,532.877h-61.921c-7.871,0-14.252-6.381-14.252-14.252V321.068c0-7.871,6.381-14.251,14.252-14.251h61.921
		c7.871,0,14.252,6.38,14.252,14.251v197.557C612,526.497,605.619,532.877,597.748,532.877z M490.102,348.396
		c-11.068-5.628-38.848-17.739-72.925-17.739c-44.39,0-91.245,32.882-91.245,32.882c-35.537,0-109.85,0-121.662,0
		c-15.618,0-48.937,8.221-48.937,47.679c0,32.881,30.852,47.678,48.937,47.678c18.084,0,140.568,0,140.568,0
		c13.051,1.254,23.839,15.44,23.839,15.44s-136.439,0-165.471,0c-29.033,0-57.586-20.372-62.511-41.684
		c-33.703-23.017-77.894-70.021-98.276-91.411c-24.009-25.197-57.375,2.122-35.073,33.962
		c10.986,15.685,53.699,61.586,103.298,112.297c44.479,45.476,123.931,57.945,185.222,57.945c65.369,0,131.129-35.577,193.062-45.68
		c3.984-0.65,6.343-4.924,6.343-8.962V356.854C495.271,353.278,493.29,350.016,490.102,348.396z M134.509,400.646
		c8.277-2.021,16.2-11.69,12.635-17.688c-7.735-13.014-64.982-61.562-84.575-69.42c-16.023-6.427-19.661,7.51-19.661,7.51
		S127.612,394.652,134.509,400.646z M150.831,366.542c8.277-2.021,16.2-11.69,12.635-17.688
		c-7.735-13.014-47.199-43.779-66.792-51.637c-16.024-6.427-19.661,7.51-19.661,7.51S143.933,360.548,150.831,366.542z
		 M420.075,110.668v147.09c0,24.362-19.75,44.11-44.111,44.11H210.267c-24.362,0-44.111-19.749-44.111-44.11v-147.09
		c0-24.362,19.749-44.112,44.111-44.112h67.406v33.203h31.297V66.556h66.995C400.326,66.556,420.075,86.306,420.075,110.668z
		 M334.919,194.656l-47.254-56.331l-47.427,56.125c0.996,0,0.99,0,27.68,0v64.821h39.153v-64.821
		C334.649,194.451,334.919,194.656,334.919,194.656z"/>
</g>
<g>
</g>
<g>
</g>
<g>
</g>
<g>
</g>
<g>
</g>
<g>
</g>
<g>
</g>
<g>
</g>
<g>
</g>
<g>
</g>
<g>
</g>
<g>
</g>
<g>
</g>
<g>
</g>
<g>
</g>
</svg>
